<svg width="261" height="30" viewBox="0 0 261 30" fill="none" xmlns="http://www.w3.org/2000/svg">
<g clip-path="url(#clip0_202_2)">
<rect width="261" height="30" fill="white"/>
<path d="M19.2005 20.33C19.2005 21.25 19.0705 22.09 18.8105 22.85C18.5505 23.59 18.0905 24.23 17.4305 24.77C16.7905 25.29 15.9005 25.7 14.7605 26C13.6205 26.3 12.1705 26.45 10.4105 26.45C8.67047 26.45 7.23047 26.3 6.09047 26C4.97047 25.7 4.08047 25.29 3.42047 24.77C2.78047 24.23 2.33047 23.59 2.07047 22.85C1.83047 22.09 1.71047 21.25 1.71047 20.33V15.47C1.71047 15.09 1.79047 14.82 1.95047 14.66C2.13047 14.48 2.41047 14.39 2.79047 14.39H7.14047C7.52047 14.39 7.79047 14.48 7.95047 14.66C8.13047 14.82 8.22047 15.09 8.22047 15.47V19.13C8.22047 19.53 8.34047 19.87 8.58047 20.15C8.84047 20.41 9.43047 20.54 10.3505 20.54C11.2105 20.54 11.7505 20.41 11.9705 20.15C12.2105 19.87 12.3305 19.53 12.3305 19.13V5.48C12.3305 5.1 12.4105 4.83 12.5705 4.67C12.7505 4.49 13.0305 4.4 13.4105 4.4H18.1205C18.5005 4.4 18.7705 4.49 18.9305 4.67C19.1105 4.83 19.2005 5.1 19.2005 5.48V20.33ZM41.5948 20.33C41.5948 21.25 41.4548 22.09 41.1748 22.85C40.9148 23.59 40.4348 24.23 39.7348 24.77C39.0548 25.29 38.1148 25.7 36.9148 26C35.7148 26.3 34.1848 26.45 32.3248 26.45C30.4648 26.45 28.9348 26.3 27.7348 26C26.5348 25.7 25.5848 25.29 24.8848 24.77C24.2048 24.23 23.7248 23.59 23.4448 22.85C23.1848 22.09 23.0548 21.25 23.0548 20.33V5.48C23.0548 5.1 23.1348 4.83 23.2948 4.67C23.4748 4.49 23.7548 4.4 24.1348 4.4H28.8448C29.2248 4.4 29.4948 4.49 29.6548 4.67C29.8348 4.83 29.9248 5.1 29.9248 5.48V19.16C29.9248 19.56 30.0748 19.9 30.3748 20.18C30.6748 20.44 31.3448 20.57 32.3848 20.57C33.4448 20.57 34.1248 20.44 34.4248 20.18C34.7248 19.9 34.8748 19.56 34.8748 19.16V5.48C34.8748 5.1 34.9548 4.83 35.1148 4.67C35.2948 4.49 35.5748 4.4 35.9548 4.4H40.5148C40.8948 4.4 41.1648 4.49 41.3248 4.67C41.5048 4.83 41.5948 5.1 41.5948 5.48V20.33ZM55.6076 26H46.1276C45.7476 26 45.4676 25.92 45.2876 25.76C45.1276 25.58 45.0476 25.3 45.0476 24.92V21.41C45.0476 21.03 45.1276 20.76 45.2876 20.6C45.4676 20.42 45.7476 20.33 46.1276 20.33H54.1976C54.4576 20.33 54.6476 20.25 54.7676 20.09C54.9076 19.91 54.9776 19.7 54.9776 19.46C54.9776 19.12 54.9076 18.87 54.7676 18.71C54.6476 18.55 54.4576 18.46 54.1976 18.44L49.6976 17.81C48.2976 17.61 47.1676 17.15 46.3076 16.43C45.4676 15.71 45.0476 14.51 45.0476 12.83V9.68C45.0476 7.98 45.5976 6.68 46.6976 5.78C47.7976 4.86 49.3176 4.4 51.2576 4.4H59.6576C60.0376 4.4 60.3076 4.49 60.4676 4.67C60.6476 4.83 60.7376 5.1 60.7376 5.48V9.05C60.7376 9.43 60.6476 9.71 60.4676 9.89C60.3076 10.05 60.0376 10.13 59.6576 10.13H52.6676C52.4076 10.13 52.2076 10.22 52.0676 10.4C51.9276 10.56 51.8576 10.77 51.8576 11.03C51.8576 11.29 51.9276 11.51 52.0676 11.69C52.2076 11.87 52.4076 11.97 52.6676 11.99L57.1376 12.59C58.5376 12.79 59.6676 13.25 60.5276 13.97C61.3876 14.69 61.8176 15.89 61.8176 17.57V20.72C61.8176 22.42 61.2576 23.73 60.1376 24.65C59.0376 25.55 57.5276 26 55.6076 26ZM75.0063 26H70.1463C69.7663 26 69.4863 25.92 69.3063 25.76C69.1463 25.58 69.0663 25.3 69.0663 24.92V10.19H64.6563C64.2763 10.19 63.9963 10.11 63.8163 9.95C63.6563 9.77 63.5763 9.49 63.5763 9.11V5.48C63.5763 5.1 63.6563 4.83 63.8163 4.67C63.9963 4.49 64.2763 4.4 64.6563 4.4H80.4963C80.8763 4.4 81.1463 4.49 81.3063 4.67C81.4863 4.83 81.5763 5.1 81.5763 5.48V9.11C81.5763 9.49 81.4863 9.77 81.3063 9.95C81.1463 10.11 80.8763 10.19 80.4963 10.19H76.0863V24.92C76.0863 25.3 75.9963 25.58 75.8163 25.76C75.6563 25.92 75.3863 26 75.0063 26ZM98.6227 10.7L97.2127 15.26H101.923L100.513 10.7C100.433 10.52 100.343 10.39 100.243 10.31C100.163 10.23 100.063 10.19 99.9427 10.19H99.1927C99.0727 10.19 98.9627 10.23 98.8627 10.31C98.7827 10.39 98.7027 10.52 98.6227 10.7ZM96.9127 24.92C96.9127 25.3 96.8227 25.58 96.6427 25.76C96.4827 25.92 96.2127 26 95.8327 26H91.4227C91.0427 26 90.7627 25.92 90.5827 25.76C90.4227 25.58 90.3427 25.3 90.3427 24.92V17C90.3427 16.4 90.4327 15.71 90.6127 14.93C90.8127 14.15 91.1127 13.24 91.5127 12.2L94.1227 5.39C94.2427 5.05 94.4227 4.8 94.6627 4.64C94.9227 4.48 95.2527 4.4 95.6527 4.4H103.723C104.103 4.4 104.413 4.48 104.653 4.64C104.913 4.8 105.103 5.05 105.223 5.39L107.833 12.2C108.233 13.24 108.523 14.15 108.703 14.93C108.903 15.71 109.003 16.4 109.003 17V24.92C109.003 25.3 108.913 25.58 108.733 25.76C108.573 25.92 108.303 26 107.923 26H103.393C102.993 26 102.693 25.92 102.493 25.76C102.313 25.58 102.223 25.3 102.223 24.92V20.72H96.9127V24.92ZM134.809 4.4H139.279C139.659 4.4 139.929 4.49 140.089 4.67C140.269 4.83 140.359 5.1 140.359 5.48V17.12C140.359 17.76 140.329 18.36 140.269 18.92C140.229 19.46 140.079 20.1 139.819 20.84L138.319 24.92C138.219 25.22 138.069 25.48 137.869 25.7C137.689 25.9 137.439 26 137.119 26H133.129C132.809 26 132.519 25.93 132.259 25.79C131.999 25.65 131.829 25.42 131.749 25.1L130.369 20.21C130.309 20.01 130.229 19.88 130.129 19.82C130.049 19.74 129.949 19.7 129.829 19.7H129.559C129.439 19.7 129.329 19.74 129.229 19.82C129.149 19.88 129.079 20.01 129.019 20.21L127.609 25.1C127.529 25.4 127.379 25.63 127.159 25.79C126.939 25.93 126.669 26 126.349 26H122.389C122.069 26 121.789 25.9 121.549 25.7C121.329 25.5 121.169 25.24 121.069 24.92L119.569 20.78C119.309 20.04 119.149 19.4 119.089 18.86C119.049 18.3 119.029 17.7 119.029 17.06V5.48C119.029 5.1 119.109 4.83 119.269 4.67C119.449 4.49 119.729 4.4 120.109 4.4H124.729C125.109 4.4 125.379 4.49 125.539 4.67C125.719 4.83 125.809 5.1 125.809 5.48V16.52L127.549 12.74C127.709 12.4 127.919 12.16 128.179 12.02C128.439 11.88 128.759 11.81 129.139 11.81H130.399C130.779 11.81 131.099 11.88 131.359 12.02C131.619 12.16 131.829 12.4 131.989 12.74L133.729 16.52V5.48C133.729 5.1 133.809 4.83 133.969 4.67C134.149 4.49 134.429 4.4 134.809 4.4ZM159.23 26H145.31C144.93 26 144.65 25.92 144.47 25.76C144.31 25.58 144.23 25.3 144.23 24.92V5.48C144.23 5.1 144.31 4.83 144.47 4.67C144.65 4.49 144.93 4.4 145.31 4.4H159.23C159.61 4.4 159.88 4.49 160.04 4.67C160.22 4.83 160.31 5.1 160.31 5.48V8.99C160.31 9.37 160.22 9.65 160.04 9.83C159.88 9.99 159.61 10.07 159.23 10.07H150.95V12.38H156.8C157.18 12.38 157.45 12.47 157.61 12.65C157.79 12.81 157.88 13.08 157.88 13.46V16.67C157.88 17.05 157.79 17.33 157.61 17.51C157.45 17.67 157.18 17.75 156.8 17.75H150.95V20.33H159.23C159.61 20.33 159.88 20.42 160.04 20.6C160.22 20.76 160.31 21.03 160.31 21.41V24.92C160.31 25.3 160.22 25.58 160.04 25.76C159.88 25.92 159.61 26 159.23 26ZM176.459 26H164.939C164.559 26 164.279 25.92 164.099 25.76C163.939 25.58 163.859 25.3 163.859 24.92V5.48C163.859 5.1 163.939 4.83 164.099 4.67C164.279 4.49 164.559 4.4 164.939 4.4H174.509C176.469 4.4 177.919 4.78 178.859 5.54C179.799 6.28 180.269 7.43 180.269 8.99V10.43C180.269 11.27 180.119 11.96 179.819 12.5C179.539 13.02 179.099 13.41 178.499 13.67C179.779 13.79 180.729 14.23 181.349 14.99C181.969 15.75 182.279 16.86 182.279 18.32V21.08C182.279 22.76 181.799 24 180.839 24.8C179.899 25.6 178.439 26 176.459 26ZM170.609 9.5V12.74H173.159C173.539 12.74 173.819 12.64 173.999 12.44C174.199 12.24 174.299 11.94 174.299 11.54V10.7C174.299 10.3 174.199 10 173.999 9.8C173.819 9.6 173.539 9.5 173.159 9.5H170.609ZM170.609 17.36V20.9H174.509C174.889 20.9 175.169 20.8 175.349 20.6C175.549 20.4 175.649 20.1 175.649 19.7V18.53C175.649 18.13 175.549 17.84 175.349 17.66C175.169 17.46 174.889 17.36 174.509 17.36H170.609ZM195.617 26H186.137C185.757 26 185.477 25.92 185.297 25.76C185.137 25.58 185.057 25.3 185.057 24.92V21.41C185.057 21.03 185.137 20.76 185.297 20.6C185.477 20.42 185.757 20.33 186.137 20.33H194.207C194.467 20.33 194.657 20.25 194.777 20.09C194.917 19.91 194.987 19.7 194.987 19.46C194.987 19.12 194.917 18.87 194.777 18.71C194.657 18.55 194.467 18.46 194.207 18.44L189.707 17.81C188.307 17.61 187.177 17.15 186.317 16.43C185.477 15.71 185.057 14.51 185.057 12.83V9.68C185.057 7.98 185.607 6.68 186.707 5.78C187.807 4.86 189.327 4.4 191.267 4.4H199.667C200.047 4.4 200.317 4.49 200.477 4.67C200.657 4.83 200.747 5.1 200.747 5.48V9.05C200.747 9.43 200.657 9.71 200.477 9.89C200.317 10.05 200.047 10.13 199.667 10.13H192.677C192.417 10.13 192.217 10.22 192.077 10.4C191.937 10.56 191.867 10.77 191.867 11.03C191.867 11.29 191.937 11.51 192.077 11.69C192.217 11.87 192.417 11.97 192.677 11.99L197.147 12.59C198.547 12.79 199.677 13.25 200.537 13.97C201.397 14.69 201.827 15.89 201.827 17.57V20.72C201.827 22.42 201.267 23.73 200.147 24.65C199.047 25.55 197.537 26 195.617 26ZM205.709 26C205.329 26 205.049 25.92 204.869 25.76C204.709 25.58 204.629 25.3 204.629 24.92V21.35C204.629 20.97 204.709 20.7 204.869 20.54C205.049 20.36 205.329 20.27 205.709 20.27H208.679V10.19H205.709C205.329 10.19 205.049 10.11 204.869 9.95C204.709 9.77 204.629 9.49 204.629 9.11V5.48C204.629 5.1 204.709 4.83 204.869 4.67C205.049 4.49 205.329 4.4 205.709 4.4H218.489C218.869 4.4 219.139 4.49 219.299 4.67C219.479 4.83 219.569 5.1 219.569 5.48V9.11C219.569 9.49 219.479 9.77 219.299 9.95C219.139 10.11 218.869 10.19 218.489 10.19H215.579V20.27H218.489C218.869 20.27 219.139 20.36 219.299 20.54C219.479 20.7 219.569 20.97 219.569 21.35V24.92C219.569 25.3 219.479 25.58 219.299 25.76C219.139 25.92 218.869 26 218.489 26H205.709ZM233.473 26H228.613C228.233 26 227.953 25.92 227.773 25.76C227.613 25.58 227.533 25.3 227.533 24.92V10.19H223.123C222.743 10.19 222.463 10.11 222.283 9.95C222.123 9.77 222.043 9.49 222.043 9.11V5.48C222.043 5.1 222.123 4.83 222.283 4.67C222.463 4.49 222.743 4.4 223.123 4.4H238.963C239.343 4.4 239.613 4.49 239.773 4.67C239.953 4.83 240.043 5.1 240.043 5.48V9.11C240.043 9.49 239.953 9.77 239.773 9.95C239.613 10.11 239.343 10.19 238.963 10.19H234.553V24.92C234.553 25.3 234.463 25.58 234.283 25.76C234.123 25.92 233.853 26 233.473 26ZM257.961 26H244.041C243.661 26 243.381 25.92 243.201 25.76C243.041 25.58 242.961 25.3 242.961 24.92V5.48C242.961 5.1 243.041 4.83 243.201 4.67C243.381 4.49 243.661 4.4 244.041 4.4H257.961C258.341 4.4 258.611 4.49 258.771 4.67C258.951 4.83 259.041 5.1 259.041 5.48V8.99C259.041 9.37 258.951 9.65 258.771 9.83C258.611 9.99 258.341 10.07 257.961 10.07H249.681V12.38H255.531C255.911 12.38 256.181 12.47 256.341 12.65C256.521 12.81 256.611 13.08 256.611 13.46V16.67C256.611 17.05 256.521 17.33 256.341 17.51C256.181 17.67 255.911 17.75 255.531 17.75H249.681V20.33H257.961C258.341 20.33 258.611 20.42 258.771 20.6C258.951 20.76 259.041 21.03 259.041 21.41V24.92C259.041 25.3 258.951 25.58 258.771 25.76C258.611 25.92 258.341 26 257.961 26Z" fill="black"/>
</g>
<defs>
<clipPath id="clip0_202_2">
<rect width="261" height="30" fill="white"/>
</clipPath>
</defs>
</svg>
